<?xml version="1.0" encoding="iso-8859-1"?>
<!-- Generator: Adobe Illustrator 19.0.0, SVG Export Plug-In . SVG Version: 6.00 Build 0)  -->
<svg version="1.2" baseProfile="tiny" id="Layer_1" xmlns:x="&ns_extend;" xmlns:i="&ns_ai;" xmlns:graph="&ns_graphs;"
	 xmlns="http://www.w3.org/2000/svg" xmlns:xlink="http://www.w3.org/1999/xlink" x="0px" y="0px" viewBox="0 0 20 77.7"
	 xml:space="preserve">
<metadata>
	<sfw  xmlns="&ns_sfw;">
		<slices></slices>
		<sliceSourceBounds  height="77.7" width="19.5" bottomLeftOrigin="true" y="-78.5" x="0.3"></sliceSourceBounds>
	</sfw>
</metadata>
<rect id="XMLID_38_" x="10.9" y="69.7" transform="matrix(-3.956728e-003 -1 1 -3.956728e-003 -63.2027 88.8296)" fill="#201E1F" width="3.6" height="12.3"/>
<rect id="XMLID_37_" x="10.8" y="61.5" transform="matrix(-3.956728e-003 -1 1 -3.956728e-003 -55.0033 80.5323)" fill="#201E1F" width="3.6" height="12.3"/>
<rect id="XMLID_36_" x="10.8" y="53.3" transform="matrix(-3.956728e-003 -1 1 -3.956728e-003 -46.8039 72.235)" fill="#201E1F" width="3.6" height="12.3"/>
<rect id="XMLID_35_" x="10.8" y="45" transform="matrix(-3.956728e-003 -1 1 -3.956728e-003 -38.6045 63.9377)" fill="#201E1F" width="3.6" height="12.3"/>
<rect id="XMLID_34_" x="10.7" y="36.8" transform="matrix(-3.956728e-003 -1 1 -3.956728e-003 -30.4051 55.6404)" fill="#201E1F" width="3.6" height="12.3"/>
<rect id="XMLID_33_" x="10.7" y="28.6" transform="matrix(-3.956728e-003 -1 1 -3.956728e-003 -22.2057 47.3431)" fill="#201E1F" width="3.6" height="12.3"/>
<rect id="XMLID_32_" x="10.7" y="20.3" transform="matrix(-3.956728e-003 -1 1 -3.956728e-003 -14.0063 39.0457)" fill="#201E1F" width="3.6" height="12.3"/>
<rect id="XMLID_31_" x="10.6" y="12.1" transform="matrix(-3.956728e-003 -1 1 -3.956728e-003 -5.8069 30.7484)" fill="#201E1F" width="3.6" height="12.3"/>
<rect id="XMLID_30_" x="10.6" y="3.9" transform="matrix(-3.956728e-003 -1 1 -3.956728e-003 2.3925 22.4511)" fill="#E71F31" width="3.6" height="12.3"/>
<rect id="XMLID_29_" x="10.6" y="-4.4" transform="matrix(-3.956728e-003 -1 1 -3.956728e-003 10.5919 14.1538)" fill="#E71F31" width="3.6" height="12.3"/>
<rect id="XMLID_20_" x="5.8" y="65.7" transform="matrix(-3.956728e-003 -1 1 -3.956728e-003 -64.2417 79.6854)" fill="#201E1F" width="3.6" height="12.3"/>
<rect id="XMLID_19_" x="5.8" y="57.4" transform="matrix(-3.956728e-003 -1 1 -3.956728e-003 -56.0423 71.3882)" fill="#201E1F" width="3.6" height="12.3"/>
<rect id="XMLID_18_" x="5.7" y="49.2" transform="matrix(-3.956728e-003 -1 1 -3.956728e-003 -47.8429 63.0908)" fill="#201E1F" width="3.6" height="12.3"/>
<rect id="XMLID_17_" x="5.7" y="41" transform="matrix(-3.956728e-003 -1 1 -3.956728e-003 -39.6435 54.7935)" fill="#201E1F" width="3.6" height="12.3"/>
<rect id="XMLID_16_" x="5.7" y="32.7" transform="matrix(-3.956728e-003 -1 1 -3.956728e-003 -31.4441 46.4962)" fill="#201E1F" width="3.6" height="12.3"/>
<rect id="XMLID_15_" x="5.6" y="24.5" transform="matrix(-3.956728e-003 -1 1 -3.956728e-003 -23.2446 38.1988)" fill="#201E1F" width="3.6" height="12.3"/>
<rect id="XMLID_14_" x="5.6" y="16.3" transform="matrix(-3.956728e-003 -1 1 -3.956728e-003 -15.0453 29.9016)" fill="#201E1F" width="3.6" height="12.3"/>
<rect id="XMLID_13_" x="5.6" y="8" transform="matrix(-3.956728e-003 -1 1 -3.956728e-003 -6.8458 21.6042)" fill="#201E1F" width="3.6" height="12.3"/>
<rect id="XMLID_12_" x="5.5" y="-0.2" transform="matrix(-3.956728e-003 -1 1 -3.956728e-003 1.3535 13.3069)" fill="#E71F31" width="3.6" height="12.3"/>
<g id="XMLID_86_">
	<path id="XMLID_39_" fill="#201E1F" d="M15.1,29.8c-0.1-1.1-1-1.9-2-1.9l0,0l0,2l0.3,0l0.9,9.1l-8.2,0.1L6.8,30l0.3,0l0-2l-0.2,0
		C5.9,28,5,28.9,5,30L4.5,68.3c0,1.1,0.8,1.9,1.9,1.9l8.8-0.2c1.1,0,1.9-0.9,1.8-2L15.1,29.8z M10.8,67.9c-2.3,0-4.3-1.8-4.3-4.2
		c0-2.3,1.8-4.3,4.2-4.3c2.3,0,4.3,1.8,4.3,4.2C15,65.9,13.1,67.9,10.8,67.9z"/>
	
		<rect id="XMLID_2_" x="7.9" y="22.3" transform="matrix(0.9999 -1.727801e-002 1.727801e-002 0.9999 -0.4786 0.1786)" fill="#201E1F" width="4.5" height="11.1"/>
	<path id="XMLID_1_" fill="#201E1F" d="M19.8,24.8c-0.1-5.1-4.3-9.2-9.4-9.1l-1,0c-5.1,0.1-9.2,4.3-9.1,9.4c0,0.9,0.2,1.9,0.5,2.7
		l0,0c0,0,0,0,0,0c0,0,0,0,0,0c1,2.4,1,5.9,1.1,9.3c0,0,0,0,0,0C2,39,2.9,40.6,4.3,41.7l0.2-12.5c0-1.1,1-2,2.2-2l0.5,0L7,21.5
		l6-0.1l0.1,5.7l0.3,0c1.2,0,2.2,0.9,2.2,2l0.7,12.5c1.4-1.1,2.2-2.8,2.3-4.7c0,0,0,0,0,0c0-0.1,0-0.2,0-0.3c0,0,0-0.1,0-0.1
		c0,0,0-0.1,0-0.1c-0.1-3.1-0.1-6.3,0.7-8.6C19.6,26.8,19.8,25.9,19.8,24.8z"/>
</g>
</svg>
