<?xml version="1.0" encoding="iso-8859-1"?>
<!-- Generator: Adobe Illustrator 19.0.0, SVG Export Plug-In . SVG Version: 6.00 Build 0)  -->

<svg version="1.2" baseProfile="tiny" id="Layer_1"
   xmlns="http://www.w3.org/2000/svg" xmlns:xlink="http://www.w3.org/1999/xlink" x="0px" y="0px" viewBox="0 0 68.1 272"
   xml:space="preserve">
   <style>
    rect{ fill:#201E1F;}
   </style>

<rect class="rec_clr" x="36.9" y="244.1" />
<rect class="rec_clr" x="36.8" y="215.3" />
<rect class="rec_clr" x="36.7" y="186.4"/>
<rect class="rec_clr" x="36.6" y="157.6" />
<rect class="rec_clr" x="36.5" y="128.8" />
<rect class="rec_clr" x="36.3" y="100" />
<rect class="rec_clr" x="36.2" y="71.2" />
<rect class="rec_clr" x="36.1" y="42.3" />
<rect class="rec_clr" x="36" y="13.5" />
<rect class="rec_clr" x="35.9" y="-15.3" transform="matrix(-3.956728e-003 -1 1 -3.956728e-003 35.9645 48.4397)" fill="#E71F31" width="12.4" height="43.2"/>
<rect class="rec_clr" x="19.1" y="229.9" transform="matrix(-3.956728e-003 -1 1 -3.956728e-003 -226.0401 277.8765)" fill="#201E1F" width="12.4" height="43.2"/>
<rect class="rec_clr" x="19" y="201.1" transform="matrix(-3.956728e-003 -1 1 -3.956728e-003 -197.3328 248.8264)" fill="#201E1F" width="12.4" height="43.2"/>
<rect class="rec_clr" x="18.9" y="172.3" transform="matrix(-3.956728e-003 -1 1 -3.956728e-003 -168.6252 219.776)" fill="#201E1F" width="12.4" height="43.2"/>
<rect class="rec_clr" x="18.8" y="143.4" transform="matrix(-3.956728e-003 -1 1 -3.956728e-003 -139.9177 190.7257)" fill="#201E1F" width="12.4" height="43.2"/>
<rect class="rec_clr" x="18.7" y="114.6" transform="matrix(-3.956728e-003 -1 1 -3.956728e-003 -111.2104 161.6755)" fill="#201E1F" width="12.4" height="43.2"/>
<rect class="rec_clr" x="18.6" y="85.8" transform="matrix(-3.956728e-003 -1 1 -3.956728e-003 -82.5028 132.6251)" fill="#201E1F" width="12.4" height="43.2"/>
<rect class="rec_clr" x="18.5" y="57" transform="matrix(-3.956728e-003 -1 1 -3.956728e-003 -53.7955 103.5751)" fill="#201E1F" width="12.4" height="43.2"/>
<rect class="rec_clr" x="18.3" y="28.1" transform="matrix(-3.956728e-003 -1 1 -3.956728e-003 -25.0879 74.5247)" fill="#201E1F" width="12.4" height="43.2"/>
<rect class="rec_clr" x="18.2" y="-0.7" transform="matrix(-3.956728e-003 -1 1 -3.956728e-003 3.6194 45.4746)" fill="#E71F31" width="12.4" height="43.2"/>
<g id="XMLID_86_">
  <path id="XMLID_39_" fill="#201E1F" d="M51.9,104.4c-0.2-3.7-3.4-6.7-7.1-6.6l-0.1,0l0.1,7.1l1.2,0l3.2,31.8l-28.5,0.5l2.1-31.9
    l1.2,0l-0.1-7.1l-0.6,0c-3.7,0.1-6.8,3.1-6.8,6.8L14.7,239c0,3.7,2.9,6.7,6.6,6.6l30.8-0.5c3.7-0.1,6.6-3.1,6.4-6.8L51.9,104.4z
     M36.7,237.7c-8.2,0.1-15-6.4-15.1-14.6c-0.1-8.2,6.4-15,14.6-15.1c8.2-0.1,15,6.4,15.1,14.6C51.4,230.8,44.9,237.6,36.7,237.7z"/>
  
    <rect id="XMLID_2_" x="26.4" y="77.9" transform="matrix(0.9999 -1.727801e-002 1.727801e-002 0.9999 -1.6758 0.606)" fill="#201E1F" width="15.7" height="38.7"/>
  <path id="XMLID_1_" fill="#201E1F" d="M68.1,86.9c-0.3-17.8-15-32.1-32.9-31.8l-3.5,0.1C13.9,55.6-0.3,70.3,0,88.1
    c0.1,3.3,0.6,6.5,1.6,9.5l0,0c0,0,0,0,0,0.1c0,0,0,0,0,0c3.3,8.4,3.5,20.6,3.7,32.4c0,0,0,0,0.1,0c0.5,6.5,3.7,12.1,8.4,16
    l0.6-43.6c0.1-3.8,3.4-7,7.5-7.1l1.7,0l-0.3-19.9l21-0.4l0.3,19.9l1.2,0c4.1-0.1,7.6,3,7.8,6.8l2.3,43.9c4.8-4,7.9-9.9,8.2-16.5
    c0,0,0,0,0,0c0-0.3,0-0.6,0-0.9c0-0.2,0-0.3,0-0.5c0-0.2,0-0.3,0-0.5c-0.2-10.9-0.2-22,2.5-30C67.6,94,68.2,90.5,68.1,86.9z"/>
</g>
</svg>
