<?xml version="1.0" encoding="iso-8859-1"?>
<!-- Generator: Adobe Illustrator 19.0.0, SVG Export Plug-In . SVG Version: 6.00 Build 0)  -->
<svg version="1.2" baseProfile="tiny" id="Layer_1" xmlns:x="&ns_extend;" xmlns:i="&ns_ai;" xmlns:graph="&ns_graphs;"
	 xmlns="http://www.w3.org/2000/svg" xmlns:xlink="http://www.w3.org/1999/xlink" x="0px" y="0px" viewBox="0 0 20 25.6"
	 xml:space="preserve">
<metadata>
	<sfw  xmlns="&ns_sfw;">
		<slices></slices>
		<sliceSourceBounds  width="19.3" height="25.8" x="0.5" y="-60.1" bottomLeftOrigin="true"></sliceSourceBounds>
	</sfw>
</metadata>
<rect id="XMLID_27_" x="11.1" y="20.7" transform="matrix(-8.044206e-002 -0.9968 0.9968 -8.044206e-002 -10.2516 36.5955)" fill="#201E1F" width="1.3" height="4.6"/>
<rect id="XMLID_26_" x="9.3" y="18.9" fill="#201E1F" width="4.6" height="1.3"/>
<rect id="XMLID_25_" x="11.3" y="13.5" transform="matrix(5.434225e-002 -0.9985 0.9985 5.434225e-002 -4.5412 26.91)" fill="#201E1F" width="1.3" height="4.6"/>
<rect id="XMLID_24_" x="11.8" y="9.6" transform="matrix(0.1037 -0.9946 0.9946 0.1037 -0.6886 23.119)" fill="#201E1F" width="1.3" height="4.6"/>
<rect id="XMLID_23_" x="13" y="6" transform="matrix(0.2501 -0.9682 0.9682 0.2501 2.2215 19.4224)" fill="#201E1F" width="1.3" height="4.6"/>
<rect id="XMLID_22_" x="14.7" y="2.7" transform="matrix(0.4279 -0.9038 0.9038 0.4279 4.2553 16.7714)" fill="#201E1F" width="1.3" height="4.6"/>
<rect id="XMLID_21_" x="16.9" y="-0.4" transform="matrix(0.5933 -0.805 0.805 0.5933 5.6023 14.894)" fill="#201E1F" width="1.3" height="4.6"/>
<rect id="XMLID_11_" x="8.6" y="22.7" transform="matrix(-5.689825e-002 -0.9984 0.9984 -5.689825e-002 -15.0895 35.6877)" fill="#201E1F" width="1.3" height="4.6"/>
<rect id="XMLID_10_" x="7" y="20.9" fill="#201E1F" width="4.6" height="1.3"/>
<rect id="XMLID_9_" x="8.3" y="15.3" transform="matrix(-8.773823e-002 -0.9961 0.9961 -8.773823e-002 -7.8032 28.0976)" fill="#201E1F" width="1.3" height="4.6"/>
<rect id="XMLID_8_" x="7.7" y="11.6" transform="matrix(-0.3041 -0.9526 0.9526 -0.3041 -2.2863 26.0719)" fill="#201E1F" width="1.3" height="4.6"/>
<rect id="XMLID_7_" x="6.4" y="8" transform="matrix(-0.5103 -0.86 0.86 -0.5103 1.7333 21.5954)" fill="#201E1F" width="1.3" height="4.6"/>
<rect id="XMLID_6_" x="4.3" y="4.8" transform="matrix(-0.6147 -0.7887 0.7887 -0.6147 2.3728 15.3169)" fill="#201E1F" width="1.3" height="4.6"/>
<rect id="XMLID_5_" x="1.9" y="1.7" transform="matrix(-0.7207 -0.6932 0.6932 -0.7207 1.6272 8.576)" fill="#201E1F" width="1.3" height="4.6"/>
</svg>
